<svg width="270" height="270" viewBox="0 0 270 270" fill="none" xmlns="http://www.w3.org/2000/svg">
<path d="M135 0C209.558 0 270 60.4416 270 135C270 209.558 209.558 270 135 270C60.4416 270 0 209.558 0 135C0 60.4416 60.4416 0 135 0ZM135 5C63.203 5 5 63.203 5 135C5 206.797 63.203 265 135 265C206.797 265 265 206.797 265 135C265 63.203 206.797 5 135 5ZM159.907 200.633C160.661 199.479 162.208 199.152 163.363 199.904C164.52 200.657 164.848 202.206 164.096 203.363L162 202C163.977 203.287 164.088 203.36 164.094 203.365L164.09 203.373C164.087 203.377 164.084 203.382 164.08 203.388C164.073 203.399 164.062 203.414 164.05 203.433C164.025 203.47 163.991 203.52 163.947 203.584C163.859 203.712 163.733 203.892 163.569 204.116C163.242 204.565 162.765 205.194 162.143 205.942C160.9 207.436 159.067 209.424 156.69 211.416C151.958 215.382 144.897 219.5 135.965 219.5C127.048 219.5 119.768 215.395 114.822 211.455C112.335 209.474 110.389 207.496 109.061 206.01C108.395 205.265 107.882 204.64 107.53 204.194C107.354 203.971 107.218 203.793 107.123 203.667C107.076 203.604 107.039 203.554 107.013 203.518C106.999 203.499 106.988 203.485 106.98 203.474C106.977 203.468 106.973 203.464 106.971 203.46C106.969 203.458 106.968 203.456 106.967 203.455L106.966 203.453C106.965 203.452 106.964 203.451 109 202L106.964 203.451C106.163 202.327 106.425 200.765 107.549 199.964C108.673 199.163 110.234 199.424 111.035 200.548C111.038 200.551 111.042 200.558 111.05 200.568C111.065 200.589 111.09 200.623 111.125 200.67C111.195 200.763 111.304 200.908 111.452 201.095C111.748 201.47 112.198 202.016 112.789 202.678C113.974 204.004 115.718 205.776 117.938 207.545C122.407 211.105 128.61 214.5 135.965 214.5C143.304 214.5 149.262 211.118 153.479 207.584C155.577 205.826 157.201 204.064 158.298 202.745C158.845 202.087 159.258 201.544 159.528 201.173C159.663 200.987 159.763 200.845 159.826 200.753C159.857 200.707 159.879 200.674 159.893 200.654C159.898 200.647 159.902 200.641 159.904 200.638V200.637L159.906 200.635C159.907 200.633 159.907 200.633 159.907 200.633ZM133.088 51.5264C140.973 51.3588 147.529 51.9609 153.824 53.7822C160.122 55.6043 166.024 58.6085 172.652 63.0869C183.767 70.5966 189.578 76.9829 195.79 89.1924C201.157 99.7403 203.5 111.213 203.5 118.881V206C203.5 207.381 202.381 208.5 201 208.5C199.619 208.5 198.5 207.381 198.5 206V118.881C198.5 112.029 196.357 101.33 191.334 91.459C185.519 80.0304 180.288 74.2807 169.853 67.2295C163.513 62.9463 158.087 60.2205 152.435 58.585C146.779 56.9487 140.764 56.3645 133.194 56.5254C126.112 56.6759 120.514 57.338 115.277 58.9365C110.054 60.5311 105.064 63.0964 99.2607 67.1992C89.3417 74.2118 84.8095 80.225 79.1338 91.4531C74.0737 101.463 71.5001 112.103 71.5 118.881V206C71.5 207.381 70.3807 208.5 69 208.5C67.6193 208.5 66.5 207.381 66.5 206V118.881C66.5001 111.139 69.3499 99.7267 74.6719 89.1982C80.624 77.4232 85.6406 70.7062 96.375 63.1172C102.496 58.79 107.963 55.9416 113.817 54.1543C119.659 52.371 125.761 51.6821 133.088 51.5264ZM118.419 190.063C119.487 189.191 121.059 189.35 121.933 190.416C121.932 190.415 121.932 190.413 121.932 190.412C121.93 190.41 121.928 190.408 121.927 190.406C121.924 190.403 121.921 190.4 121.918 190.396C121.912 190.39 121.907 190.384 121.903 190.379C121.896 190.37 121.891 190.364 121.889 190.362C121.892 190.365 121.9 190.375 121.915 190.39C121.959 190.433 122.059 190.526 122.222 190.653C122.547 190.907 123.135 191.303 124.062 191.721C125.91 192.554 129.168 193.5 134.467 193.5C139.775 193.5 142.752 192.552 144.308 191.768C145.085 191.376 145.524 191.017 145.736 190.814C145.843 190.712 145.898 190.646 145.91 190.63C145.908 190.633 145.905 190.637 145.9 190.644C145.894 190.652 145.886 190.666 145.876 190.682C145.871 190.69 145.865 190.698 145.859 190.708C145.856 190.713 145.854 190.718 145.851 190.724C145.849 190.726 145.847 190.729 145.846 190.731C145.845 190.733 145.843 190.736 145.843 190.736V190.737C146.539 189.547 148.068 189.146 149.26 189.841C150.452 190.537 150.855 192.067 150.159 193.26L148 192C150.079 193.213 150.156 193.26 150.157 193.264L150.137 193.298C150.128 193.312 150.119 193.326 150.109 193.342C150.09 193.373 150.068 193.408 150.042 193.446C149.99 193.523 149.925 193.613 149.846 193.714C149.687 193.916 149.471 194.163 149.185 194.436C148.609 194.983 147.765 195.624 146.559 196.232C144.147 197.448 140.358 198.5 134.467 198.5C128.566 198.5 124.59 197.446 122.005 196.279C120.715 195.697 119.786 195.093 119.148 194.597C118.831 194.349 118.587 194.129 118.409 193.954C118.32 193.867 118.248 193.79 118.19 193.728C118.162 193.696 118.137 193.668 118.116 193.644C118.106 193.631 118.096 193.62 118.087 193.609C118.083 193.604 118.079 193.599 118.075 193.595C118.073 193.592 118.071 193.59 118.069 193.588C118.069 193.587 118.067 193.586 118.066 193.585C118.065 193.583 118.064 193.581 120 192L118.063 193.581C117.19 192.512 117.35 190.937 118.419 190.063ZM95.8574 162.651C96.4214 162.858 96.8905 163.263 97.1816 163.785L104.626 170.16C105.675 171.058 105.797 172.636 104.898 173.685C104 174.733 102.423 174.856 101.374 173.958L98.0645 171.124C98.4372 174.125 99.0157 177.541 99.876 180.174C100.703 182.704 102.035 185.869 103.186 188.451C103.756 189.731 104.273 190.849 104.647 191.646C104.834 192.043 104.986 192.36 105.09 192.577C105.142 192.685 105.181 192.769 105.208 192.824C105.221 192.852 105.232 192.873 105.238 192.887C105.242 192.894 105.245 192.899 105.246 192.902C105.247 192.904 105.248 192.905 105.248 192.905V192.906L105.349 193.142C105.785 194.331 105.258 195.682 104.094 196.248C102.93 196.814 101.542 196.396 100.875 195.318L100.752 195.094L100.751 195.092C100.75 195.091 100.749 195.089 100.748 195.087C100.746 195.083 100.743 195.076 100.739 195.068C100.732 195.052 100.721 195.029 100.706 194.999C100.677 194.939 100.634 194.851 100.58 194.737C100.471 194.511 100.316 194.182 100.123 193.772C99.7378 192.953 99.2053 191.805 98.6182 190.487C97.4533 187.874 96.0348 184.514 95.124 181.727C94.028 178.372 93.3805 174.181 93.0049 170.932C92.9862 170.77 92.9696 170.61 92.9521 170.452L88.7949 174.74C87.8338 175.731 86.251 175.756 85.2598 174.795C84.2686 173.834 84.2441 172.251 85.2051 171.26L92.9629 163.26L94.5986 161.572L95.8574 162.651ZM185.768 170.232C186.744 171.209 186.744 172.791 185.768 173.768C184.791 174.744 183.209 174.744 182.232 173.768L178.145 169.68C178.108 170.045 178.069 170.426 178.025 170.817C177.672 174.006 177.064 178.118 176.033 181.408C175.155 184.213 173.67 187.442 172.449 189.9C171.831 191.145 171.267 192.222 170.855 192.988C170.65 193.372 170.482 193.678 170.365 193.891C170.307 193.997 170.26 194.08 170.229 194.137C170.213 194.165 170.201 194.187 170.192 194.202C170.188 194.21 170.185 194.216 170.183 194.22C170.182 194.222 170.18 194.223 170.18 194.225L170.179 194.227C169.501 195.429 167.975 195.856 166.772 195.178C165.57 194.5 165.144 192.975 165.822 191.772L165.823 191.77C165.825 191.767 165.828 191.763 165.831 191.757C165.838 191.745 165.848 191.726 165.862 191.701C165.89 191.651 165.932 191.576 165.986 191.478C166.095 191.28 166.253 190.99 166.449 190.625C166.841 189.894 167.381 188.864 167.971 187.677C169.165 185.272 170.505 182.33 171.262 179.914C172.12 177.174 172.68 173.572 173.027 170.507L169.768 173.768C168.791 174.744 167.209 174.744 166.232 173.768C165.256 172.791 165.256 171.209 166.232 170.232L176 160.465L185.768 170.232ZM124.69 170.043C125.186 168.847 126.503 168.24 127.717 168.604L127.957 168.69C127.958 168.691 127.96 168.691 127.963 168.692C127.969 168.695 127.98 168.7 127.995 168.706C128.026 168.718 128.073 168.738 128.137 168.763C128.264 168.813 128.454 168.887 128.693 168.976C129.174 169.154 129.848 169.391 130.615 169.627C132.223 170.12 133.968 170.517 135.207 170.499C136.378 170.482 138.021 170.084 139.532 169.602C140.253 169.371 140.886 169.142 141.338 168.97C141.563 168.884 141.741 168.814 141.86 168.766C141.92 168.742 141.965 168.723 141.993 168.711C142.007 168.705 142.017 168.701 142.023 168.698C142.025 168.697 142.027 168.698 142.028 168.697C143.3 168.161 144.767 168.756 145.304 170.028C145.84 171.3 145.244 172.767 143.972 173.304L143 171C143.936 173.219 143.97 173.301 143.971 173.304H143.97L143.969 173.305L143.949 173.312C143.937 173.317 143.922 173.325 143.901 173.333C143.861 173.35 143.803 173.374 143.729 173.403C143.583 173.462 143.374 173.544 143.116 173.643C142.601 173.839 141.88 174.1 141.052 174.364C139.465 174.871 137.23 175.471 135.278 175.499C133.211 175.529 130.834 174.925 129.147 174.407C128.267 174.137 127.5 173.866 126.952 173.662C126.677 173.56 126.455 173.475 126.3 173.413C126.222 173.382 126.161 173.357 126.117 173.34C126.096 173.331 126.078 173.324 126.065 173.319C126.059 173.317 126.055 173.314 126.051 173.312C126.049 173.312 126.047 173.311 126.046 173.311L126.044 173.31H126.043C124.768 172.781 124.162 171.318 124.69 170.043ZM133.07 69.9189C138.934 69.753 144.011 69.9977 148.897 71.209C153.814 72.4277 158.417 74.5935 163.401 78.1211C168.491 81.7229 170.694 83.8689 174.602 88.7666C177.602 92.5268 179.461 94.8206 181.831 99.3252C185.158 105.648 186.699 109.483 187.676 117.112C187.942 119.19 187.865 122.712 187.648 126.605C187.428 130.576 187.048 135.164 186.64 139.504C186.239 143.767 185.809 147.807 185.477 150.816C185.49 151.647 185.499 152.403 185.5 153.067C185.501 153.991 185.493 154.738 185.485 155.256C185.481 155.515 185.477 155.717 185.474 155.855C185.472 155.925 185.471 155.978 185.47 156.015C185.469 156.033 185.469 156.047 185.469 156.057V156.073C185.469 156.073 185.469 156.073 184.873 156.056C184.664 157.377 183.449 158.308 182.109 158.147C180.739 157.983 179.76 156.738 179.925 155.367L180.48 155.434L180.481 155.433L179.925 155.366H179.926C179.926 155.365 179.926 155.363 179.926 155.361C179.926 155.358 179.927 155.353 179.928 155.346C179.929 155.331 179.932 155.309 179.936 155.28C179.942 155.222 179.952 155.135 179.966 155.021C179.993 154.795 180.032 154.46 180.082 154.031C180.178 153.201 180.313 152.019 180.473 150.58C180.448 149.224 180.403 147.682 180.32 146.038C180.037 140.423 179.344 133.918 177.81 129.526C177.805 129.514 177.799 129.498 177.792 129.479C177.768 129.417 177.732 129.323 177.683 129.199C177.584 128.952 177.435 128.586 177.239 128.128C176.847 127.209 176.267 125.925 175.526 124.476C174.024 121.537 171.939 118.082 169.495 115.577C164.298 110.249 160.607 107.615 153.903 104.612C150.995 103.309 149.36 102.708 146.313 101.865C141.948 100.658 139.478 100.425 134.878 100.518C130.737 100.601 127.651 100.884 123.762 101.878C120.445 102.726 119.553 103.189 116.178 104.63C109.496 107.481 105.963 110.219 101.156 115.513C98.7099 118.207 97.1663 120.211 95.9717 122.296C94.7758 124.383 93.872 126.65 92.8027 129.938C91.3581 134.382 90.7771 140.788 90.584 146.271C90.4888 148.975 90.4893 151.387 90.5137 153.122C90.5258 153.989 90.5436 154.685 90.5586 155.162C90.5661 155.4 90.5734 155.584 90.5781 155.707C90.5805 155.768 90.5817 155.815 90.583 155.845C90.5836 155.86 90.5847 155.871 90.585 155.878V155.887L90.0781 155.909C89.9623 157.102 89.0022 158.073 87.7666 158.159C86.3894 158.255 85.1947 157.216 85.0986 155.839V155.832C85.0983 155.828 85.0972 155.822 85.0967 155.813C85.0956 155.797 85.094 155.773 85.0918 155.741C85.0874 155.678 85.0807 155.583 85.0723 155.46C85.0553 155.213 85.0314 154.852 85 154.39C84.9373 153.466 84.8476 152.14 84.7422 150.535C84.5313 147.325 84.2551 142.993 83.9932 138.508C83.7314 134.025 83.4835 129.38 83.3301 125.546C83.1803 121.803 83.1089 118.609 83.2451 117.19C83.9085 110.283 84.8533 106.167 88.165 99.8174C90.5518 95.241 92.0231 92.7897 94.957 89.2217C98.6865 84.6862 101.267 81.7918 106.072 78.166C112.635 73.2146 122.405 70.2208 133.07 69.9189ZM163.736 145.843C164.829 145.201 166.252 145.478 167.017 146.522C167.833 147.636 167.591 149.201 166.478 150.017L165 148C166.386 149.891 166.472 150.009 166.477 150.017V150.018L166.468 150.023C166.463 150.027 166.457 150.032 166.449 150.037C166.433 150.049 166.411 150.065 166.383 150.085C166.327 150.125 166.248 150.182 166.147 150.252C165.946 150.393 165.656 150.591 165.297 150.828C164.58 151.301 163.572 151.936 162.404 152.582C160.174 153.815 156.97 155.316 154.03 155.483C151.807 155.61 149.234 154.999 147.413 154.463C146.461 154.183 145.631 153.898 145.037 153.682C144.739 153.573 144.499 153.482 144.33 153.416C144.246 153.383 144.18 153.357 144.133 153.338C144.109 153.328 144.09 153.321 144.076 153.315C144.07 153.313 144.065 153.31 144.061 153.309C144.058 153.308 144.056 153.307 144.055 153.307L144.053 153.306H144.052C142.774 152.782 142.163 151.321 142.687 150.044C143.21 148.767 144.671 148.155 145.948 148.679H145.947C145.948 148.679 145.951 148.68 145.954 148.682C145.961 148.684 145.973 148.689 145.989 148.695C146.022 148.709 146.075 148.729 146.144 148.756C146.281 148.809 146.487 148.888 146.746 148.982C147.267 149.172 147.996 149.423 148.824 149.667C150.563 150.179 152.435 150.566 153.747 150.491C155.475 150.393 157.826 149.4 159.984 148.206C161.011 147.638 161.905 147.076 162.543 146.655C162.861 146.446 163.112 146.273 163.281 146.155C163.365 146.096 163.429 146.051 163.47 146.021C163.49 146.007 163.505 145.996 163.514 145.989C163.518 145.986 163.521 145.984 163.522 145.983L163.736 145.843ZM102.524 145.823C103.369 144.737 104.937 144.546 106.028 145.397H106.029L106.072 145.43C106.105 145.455 106.157 145.495 106.225 145.546C106.36 145.648 106.562 145.798 106.817 145.982C107.329 146.353 108.05 146.857 108.883 147.39C110.613 148.496 112.582 149.564 114.109 149.966C115.925 150.443 118.56 150.355 120.975 150.062C122.135 149.922 123.165 149.745 123.902 149.604C124.27 149.533 124.563 149.472 124.761 149.429C124.859 149.407 124.934 149.39 124.982 149.379C125.006 149.373 125.025 149.37 125.035 149.367C125.04 149.366 125.043 149.365 125.045 149.364L125.046 149.363C126.386 149.044 127.738 149.875 128.065 151.219C128.392 152.562 127.571 153.911 126.23 154.23V154.231H126.227C126.225 154.232 126.222 154.233 126.22 154.233C126.214 154.235 126.206 154.236 126.197 154.238C126.179 154.243 126.154 154.249 126.122 154.256C126.058 154.271 125.965 154.291 125.849 154.316C125.616 154.367 125.283 154.437 124.872 154.516C124.051 154.673 122.906 154.871 121.604 155.028C119.095 155.332 115.656 155.537 112.865 154.804C110.532 154.19 108.007 152.749 106.209 151.6C105.277 151.004 104.475 150.443 103.905 150.031C103.62 149.825 103.39 149.654 103.23 149.533C103.151 149.473 103.087 149.425 103.043 149.392C103.021 149.375 103.005 149.361 102.992 149.352L102.973 149.336L102.971 149.334H102.97C102.973 149.329 103.046 149.235 104.5 147.365L102.97 149.333C101.879 148.481 101.68 146.91 102.524 145.823ZM148.446 131.398C151.967 130.326 156.698 129.2 160.51 129.573C163.328 129.849 166.307 130.967 168.457 131.924C169.559 132.414 170.501 132.888 171.168 133.24C171.502 133.417 171.77 133.563 171.957 133.668C172.05 133.72 172.124 133.762 172.176 133.792C172.202 133.807 172.222 133.819 172.237 133.827C172.245 133.831 172.25 133.835 172.255 133.838C172.257 133.839 172.259 133.84 172.261 133.841L172.263 133.843H172.264L172.265 133.844C173.455 134.542 173.855 136.074 173.156 137.265C172.458 138.455 170.927 138.855 169.736 138.157C169.735 138.157 169.732 138.155 169.729 138.152C169.721 138.148 169.707 138.14 169.688 138.13C169.651 138.109 169.593 138.075 169.516 138.032C169.361 137.945 169.129 137.818 168.834 137.662C168.242 137.35 167.403 136.927 166.425 136.492C164.413 135.597 162.026 134.746 160.023 134.55C157.278 134.281 153.376 135.124 149.902 136.182C148.22 136.694 146.731 137.227 145.662 137.632C145.129 137.834 144.703 138.004 144.413 138.121C144.268 138.18 144.157 138.225 144.084 138.256C144.048 138.271 144.021 138.283 144.004 138.29C143.996 138.294 143.99 138.296 143.986 138.298C143.985 138.298 143.984 138.298 143.983 138.298C142.714 138.841 141.244 138.253 140.701 136.983C140.158 135.714 140.747 134.244 142.017 133.701L142.901 135.769C142.045 133.765 142.018 133.703 142.018 133.701L142.019 133.7C142.019 133.7 142.02 133.7 142.021 133.699C142.023 133.698 142.026 133.698 142.029 133.696C142.036 133.693 142.046 133.689 142.058 133.684C142.081 133.674 142.116 133.66 142.159 133.642C142.246 133.605 142.372 133.553 142.533 133.488C142.855 133.358 143.317 133.174 143.89 132.957C145.034 132.523 146.632 131.951 148.446 131.398ZM111.035 128.597C114.887 128.108 119.58 129.577 122.964 130.912C124.728 131.608 126.28 132.329 127.39 132.874C127.946 133.147 128.394 133.379 128.707 133.543C128.863 133.625 128.986 133.691 129.071 133.737C129.114 133.76 129.147 133.778 129.171 133.791C129.183 133.797 129.192 133.803 129.199 133.807C129.202 133.808 129.205 133.809 129.207 133.811C129.208 133.811 129.209 133.812 129.21 133.812L129.211 133.813C129.207 133.821 129.142 133.94 128.055 135.901L129.212 133.813C130.419 134.483 130.856 136.004 130.187 137.212C129.559 138.344 128.182 138.798 127.018 138.299L126.788 138.187L126.786 138.186C126.783 138.184 126.777 138.18 126.77 138.176C126.754 138.167 126.728 138.153 126.693 138.135C126.624 138.097 126.519 138.041 126.381 137.969C126.104 137.823 125.696 137.612 125.186 137.361C124.162 136.858 122.736 136.198 121.128 135.563C117.767 134.237 114.136 133.244 111.665 133.558C109.855 133.787 107.625 134.804 105.681 135.926C104.746 136.465 103.943 136.989 103.375 137.377C103.092 137.57 102.87 137.729 102.722 137.837C102.648 137.891 102.592 137.932 102.557 137.958C102.539 137.971 102.526 137.98 102.519 137.985C102.515 137.988 102.513 137.99 102.512 137.991C101.413 138.826 99.845 138.612 99.0098 137.513C98.1743 136.413 98.3881 134.845 99.4873 134.01L100.743 135.662C99.4873 134.01 99.4879 134.009 99.4883 134.009H99.4893L99.4912 134.007C99.4926 134.006 99.4942 134.004 99.4961 134.003C99.5006 134 99.5074 133.995 99.5146 133.989C99.5291 133.978 99.5492 133.963 99.5742 133.944C99.6245 133.907 99.6958 133.855 99.7861 133.789C99.9676 133.657 100.228 133.473 100.552 133.251C101.198 132.808 102.111 132.211 103.183 131.594C105.251 130.401 108.196 128.957 111.035 128.597ZM160.872 82.459C160.2 83.0335 159.374 83.7167 158.451 84.4316C156.058 86.285 152.74 88.5705 149.669 89.5684C146.374 90.6386 142.236 90.598 139.158 90.3662C138.182 90.2927 137.276 90.1952 136.49 90.0977C136.501 90.6417 136.502 91.1664 136.495 91.6631C136.473 93.1627 136.384 94.5036 136.297 95.501C140.425 95.4885 143.258 95.8325 147.646 97.0459C150.954 97.9604 152.826 98.6514 155.947 100.05C163.254 103.323 167.46 106.33 173.074 112.086C176.036 115.122 178.391 119.096 179.978 122.199C180.781 123.771 181.409 125.161 181.837 126.162C182.051 126.663 182.215 127.068 182.328 127.352C182.384 127.493 182.428 127.605 182.458 127.683C182.473 127.721 182.485 127.752 182.493 127.773C182.497 127.784 182.501 127.793 182.503 127.8C182.504 127.803 182.505 127.806 182.506 127.808C182.506 127.809 182.507 127.81 182.507 127.811V127.812C182.507 127.812 182.507 127.813 180.165 128.687L182.508 127.812L182.517 127.837L182.558 127.96C182.593 127.405 182.627 126.861 182.656 126.328C182.876 122.372 182.915 119.3 182.716 117.747C181.834 110.856 180.534 107.597 177.406 101.654C175.275 97.6038 173.679 95.6279 170.692 91.8848C167.149 87.4443 165.287 85.6091 160.872 82.459ZM124.432 75.8623C118.227 77.0537 112.901 79.2772 109.084 82.1572C104.734 85.4391 102.443 87.9902 98.8193 92.3975C96.1815 95.6053 94.8918 97.7311 92.5977 102.13C89.6484 107.785 88.8394 111.246 88.2227 117.668C88.1265 118.669 88.1709 121.465 88.3262 125.346C88.3513 125.974 88.3812 126.625 88.4111 127.295C89.3903 124.396 90.3468 122.056 91.6338 119.811C93.0807 117.286 94.8877 114.978 97.4551 112.151C102.676 106.402 106.782 103.203 114.216 100.031C117.555 98.6062 118.782 97.9894 122.523 97.0332C125.673 96.2281 128.365 95.8436 131.258 95.6582C131.271 95.5234 131.29 95.3772 131.304 95.2197C131.387 94.2994 131.474 93.0208 131.495 91.5908C131.538 88.6232 131.28 85.4076 130.37 83.2939C129.618 81.5463 127.963 79.4863 126.313 77.7383C125.612 76.9951 124.95 76.3509 124.432 75.8623ZM147.694 76.0615C143.442 75.0075 138.881 74.7566 133.212 74.917C132.342 74.9416 131.483 74.9865 130.634 75.0488C132.21 76.7949 133.988 79.0532 134.963 81.3184C135.449 82.4473 135.786 83.7027 136.021 84.9893C136.925 85.1215 138.154 85.277 139.533 85.3809C142.502 85.6044 145.812 85.5636 148.124 84.8125C150.311 84.1018 153.046 82.2923 155.39 80.4775C155.769 80.1837 156.13 79.8937 156.47 79.6172C153.476 77.9153 150.63 76.7891 147.694 76.0615Z" fill="black"/>
</svg>
