<svg width="270" height="270" viewBox="0 0 270 270" fill="none" xmlns="http://www.w3.org/2000/svg">
<path d="M135 0C209.558 0 270 60.4416 270 135C270 209.558 209.558 270 135 270C60.4416 270 0 209.558 0 135C0 60.4416 60.4416 0 135 0ZM135 5C63.203 5 5 63.203 5 135C5 206.797 63.203 265 135 265C206.797 265 265 206.797 265 135C265 63.203 206.797 5 135 5ZM106.005 158.5C112.314 158.513 119.859 160.777 125.634 162.914C128.562 163.998 131.115 165.08 132.937 165.891C133.848 166.297 134.579 166.636 135.085 166.875C135.338 166.994 135.534 167.089 135.669 167.154C135.736 167.187 135.789 167.213 135.825 167.23L135.882 167.259H135.883C135.883 167.259 135.884 167.26 134.82 169.405L135.884 167.26L135.889 167.262L135.896 167.266C135.902 167.269 135.913 167.274 135.928 167.281C135.957 167.295 136.001 167.317 136.061 167.346C136.18 167.404 136.358 167.491 136.592 167.602C137.059 167.824 137.744 168.143 138.603 168.528C140.323 169.299 142.734 170.329 145.493 171.361C151.094 173.455 157.828 175.442 163.12 175.499C168.612 175.558 175.732 173.57 181.681 171.442C184.611 170.394 187.18 169.341 189.016 168.55C189.932 168.155 190.664 167.825 191.164 167.597C191.414 167.482 191.606 167.393 191.733 167.333C191.797 167.303 191.845 167.28 191.876 167.266C191.891 167.258 191.903 167.253 191.91 167.25C191.913 167.248 191.916 167.247 191.917 167.246L191.919 167.245C193.163 166.648 194.656 167.173 195.254 168.417C195.851 169.662 195.327 171.155 194.082 171.753L194.081 171.754H194.08L194.064 171.762C194.054 171.767 194.039 171.773 194.021 171.782C193.983 171.8 193.928 171.826 193.857 171.859C193.716 171.926 193.51 172.021 193.245 172.143C192.715 172.385 191.95 172.729 190.995 173.141C189.088 173.963 186.418 175.058 183.364 176.15C177.344 178.304 169.509 180.567 163.067 180.498C156.851 180.432 149.425 178.17 143.742 176.045C140.86 174.967 138.349 173.894 136.558 173.091C135.661 172.689 134.942 172.354 134.444 172.117C134.196 171.999 134.003 171.906 133.87 171.841C133.804 171.808 133.752 171.783 133.717 171.766L133.664 171.739H133.662C133.661 171.739 133.659 171.737 133.655 171.735C133.649 171.732 133.638 171.727 133.623 171.72C133.594 171.705 133.549 171.683 133.488 171.653C133.367 171.595 133.185 171.508 132.947 171.396C132.472 171.171 131.777 170.848 130.903 170.459C129.155 169.68 126.703 168.641 123.898 167.604C118.207 165.497 111.365 163.512 105.995 163.5C100.586 163.488 93.6899 165.473 87.9521 167.586C85.1249 168.627 82.6537 169.671 80.8906 170.453C80.0103 170.844 79.3089 171.169 78.8301 171.395C78.5909 171.507 78.4073 171.595 78.2852 171.654C78.2241 171.684 78.1781 171.706 78.1484 171.721C78.1338 171.728 78.1229 171.733 78.1162 171.736C78.1129 171.738 78.1107 171.74 78.1094 171.74H78.1084L77.873 171.842C76.6864 172.286 75.3326 171.768 74.7588 170.607C74.147 169.37 74.6542 167.871 75.8916 167.259L75.8926 167.258H75.8936L75.9092 167.25C75.9191 167.245 75.9331 167.238 75.9512 167.229C75.9875 167.212 76.0403 167.186 76.1084 167.153C76.2445 167.088 76.4425 166.992 76.6973 166.872C77.2068 166.632 77.9434 166.291 78.8623 165.883C80.6986 165.068 83.2724 163.982 86.2246 162.895C92.0455 160.751 99.6497 158.487 106.005 158.5ZM106.005 125.5C112.314 125.513 119.859 127.777 125.634 129.914C128.562 130.998 131.115 132.08 132.937 132.891C133.848 133.297 134.579 133.636 135.085 133.875C135.338 133.994 135.534 134.089 135.669 134.154C135.736 134.187 135.789 134.213 135.825 134.23L135.882 134.259H135.883C135.883 134.259 135.884 134.26 134.82 136.405L135.884 134.26L135.889 134.262L135.896 134.266C135.902 134.269 135.913 134.274 135.928 134.281C135.957 134.295 136.001 134.317 136.061 134.346C136.18 134.404 136.358 134.491 136.592 134.602C137.059 134.824 137.744 135.143 138.603 135.528C140.323 136.299 142.734 137.329 145.493 138.361C151.094 140.455 157.828 142.442 163.12 142.499C168.612 142.558 175.732 140.57 181.681 138.442C184.611 137.394 187.18 136.341 189.016 135.55C189.932 135.155 190.664 134.825 191.164 134.597C191.414 134.482 191.606 134.393 191.733 134.333C191.797 134.303 191.845 134.28 191.876 134.266C191.891 134.258 191.903 134.253 191.91 134.25C191.913 134.248 191.916 134.247 191.917 134.246L191.919 134.245C193.163 133.648 194.656 134.173 195.254 135.417C195.851 136.662 195.327 138.155 194.082 138.753L194.081 138.754H194.08L194.064 138.762C194.054 138.767 194.039 138.773 194.021 138.782C193.983 138.8 193.928 138.826 193.857 138.859C193.716 138.926 193.51 139.021 193.245 139.143C192.715 139.385 191.95 139.729 190.995 140.141C189.088 140.963 186.418 142.058 183.364 143.15C177.344 145.304 169.509 147.567 163.067 147.498C156.851 147.432 149.425 145.17 143.742 143.045C140.86 141.967 138.349 140.894 136.558 140.091C135.661 139.689 134.942 139.354 134.444 139.117C134.196 138.999 134.003 138.906 133.87 138.841C133.804 138.808 133.752 138.783 133.717 138.766L133.664 138.739H133.662C133.661 138.739 133.659 138.737 133.655 138.735C133.649 138.732 133.638 138.727 133.623 138.72C133.594 138.705 133.549 138.683 133.488 138.653C133.367 138.595 133.185 138.508 132.947 138.396C132.472 138.171 131.777 137.848 130.903 137.459C129.155 136.68 126.703 135.641 123.898 134.604C118.207 132.497 111.365 130.512 105.995 130.5C100.586 130.488 93.6899 132.473 87.9521 134.586C85.1249 135.627 82.6537 136.671 80.8906 137.453C80.0103 137.844 79.3089 138.169 78.8301 138.395C78.5909 138.507 78.4073 138.595 78.2852 138.654C78.2241 138.684 78.1781 138.706 78.1484 138.721C78.1338 138.728 78.1229 138.733 78.1162 138.736C78.1129 138.738 78.1107 138.74 78.1094 138.74H78.1084L77.873 138.842C76.6864 139.286 75.3326 138.768 74.7588 137.607C74.147 136.37 74.6542 134.871 75.8916 134.259L75.8926 134.258H75.8936L75.9092 134.25C75.9191 134.245 75.9331 134.238 75.9512 134.229C75.9875 134.212 76.0403 134.186 76.1084 134.153C76.2445 134.088 76.4425 133.992 76.6973 133.872C77.2068 133.632 77.9434 133.291 78.8623 132.883C80.6986 132.068 83.2724 130.982 86.2246 129.895C92.0455 127.751 99.6497 125.487 106.005 125.5ZM106.005 90.5C112.314 90.5135 119.859 92.7771 125.634 94.9141C128.562 95.9978 131.115 97.0796 132.937 97.8906C133.848 98.2965 134.579 98.636 135.085 98.875C135.338 98.9944 135.534 99.0889 135.669 99.1543C135.736 99.187 135.789 99.2128 135.825 99.2305L135.882 99.2588H135.883C135.883 99.259 135.884 99.2596 134.82 101.405L135.884 99.2598L135.889 99.2617L135.896 99.2656C135.902 99.2689 135.913 99.2741 135.928 99.2812C135.957 99.2955 136.001 99.3168 136.061 99.3457C136.18 99.4037 136.358 99.4906 136.592 99.6016C137.059 99.8236 137.744 100.143 138.603 100.528C140.323 101.299 142.734 102.329 145.493 103.361C151.094 105.455 157.828 107.442 163.12 107.499C168.612 107.558 175.732 105.57 181.681 103.442C184.611 102.394 187.18 101.341 189.016 100.55C189.932 100.155 190.664 99.8254 191.164 99.5967C191.414 99.4824 191.606 99.3929 191.733 99.333C191.797 99.3031 191.845 99.2804 191.876 99.2656C191.891 99.2583 191.903 99.2534 191.91 99.25C191.913 99.2484 191.916 99.2468 191.917 99.2461L191.919 99.2451C193.163 98.6483 194.656 99.1728 195.254 100.417C195.851 101.662 195.327 103.155 194.082 103.753L194.081 103.754H194.08L194.064 103.762C194.054 103.767 194.039 103.773 194.021 103.782C193.983 103.8 193.928 103.826 193.857 103.859C193.716 103.926 193.51 104.021 193.245 104.143C192.715 104.385 191.95 104.729 190.995 105.141C189.088 105.963 186.418 107.058 183.364 108.15C177.344 110.304 169.509 112.567 163.067 112.498C156.851 112.432 149.425 110.17 143.742 108.045C140.86 106.967 138.349 105.894 136.558 105.091C135.661 104.689 134.942 104.354 134.444 104.117C134.196 103.999 134.003 103.906 133.87 103.841C133.804 103.808 133.752 103.783 133.717 103.766L133.664 103.739H133.662C133.661 103.739 133.659 103.737 133.655 103.735C133.649 103.732 133.638 103.727 133.623 103.72C133.594 103.705 133.549 103.683 133.488 103.653C133.367 103.595 133.185 103.508 132.947 103.396C132.472 103.171 131.777 102.848 130.903 102.459C129.155 101.68 126.703 100.641 123.898 99.6035C118.207 97.4973 111.365 95.5116 105.995 95.5C100.586 95.4884 93.6899 97.4733 87.9521 99.5859C85.1249 100.627 82.6537 101.671 80.8906 102.453C80.0103 102.844 79.3089 103.169 78.8301 103.395C78.5909 103.507 78.4073 103.595 78.2852 103.654C78.2241 103.684 78.1781 103.706 78.1484 103.721C78.1338 103.728 78.1229 103.733 78.1162 103.736C78.1129 103.738 78.1107 103.74 78.1094 103.74H78.1084L77.873 103.842C76.6864 104.286 75.3326 103.768 74.7588 102.607C74.147 101.37 74.6542 99.8709 75.8916 99.2588L75.8926 99.2578H75.8936L75.9092 99.25C75.9191 99.2451 75.9331 99.2383 75.9512 99.2295C75.9875 99.2117 76.0403 99.1862 76.1084 99.1533C76.2445 99.0875 76.4425 98.9922 76.6973 98.8721C77.2068 98.6318 77.9434 98.2906 78.8623 97.8828C80.6986 97.0678 83.2724 95.9815 86.2246 94.8945C92.0455 92.7513 99.6497 90.4865 106.005 90.5Z" fill="black"/>
</svg>
