<svg width="270" height="270" viewBox="0 0 270 270" fill="none" xmlns="http://www.w3.org/2000/svg">
<path d="M135 0C209.558 0 270 60.4416 270 135C270 209.558 209.558 270 135 270C60.4416 270 0 209.558 0 135C0 60.4416 60.4416 0 135 0ZM135 5C63.203 5 5 63.203 5 135C5 206.797 63.203 265 135 265C206.797 265 265 206.797 265 135C265 63.203 206.797 5 135 5ZM82.626 166.884C82.8418 171.509 83.3471 174.316 84.3809 176.279C85.3346 178.091 86.8903 179.456 89.9766 180.767L95.3301 183.039L89.998 185.36C87.0766 186.632 85.5534 188.035 84.5742 190.009C83.5071 192.16 82.9578 195.232 82.623 200.169L77.6348 200.165C77.3018 195.127 76.7961 191.994 75.7266 189.83C74.7671 187.889 73.2465 186.531 70.1553 185.421L63.6465 183.084L70.1445 180.719C73.4371 179.52 75.0349 178.184 75.9844 176.411C77.0252 174.468 77.4971 171.636 77.6299 166.93L82.626 166.884ZM133.121 67.7734C146.483 91.5131 166.45 121.671 170.411 127.798C174.698 134.429 178.477 147.075 175.346 161.782C172.17 176.697 162.398 183.923 153.021 188.515C139.174 195.296 125.912 195.13 111.192 188.193C99.1424 182.514 92.0962 174.526 89.1816 162.882C85.6334 148.706 87.5446 136.129 96.4043 122.709C110.103 101.96 117.505 90.2361 128.708 67.8799L130.814 63.6758L133.121 67.7734ZM131.074 74.2793C120.874 94.266 113.459 105.951 100.577 125.464C92.4802 137.728 90.8283 148.868 94.0322 161.668C96.5315 171.653 102.428 178.535 113.324 183.67C126.781 190.012 138.445 190.086 150.822 184.024C159.507 179.771 167.731 173.537 170.456 160.74C173.308 147.346 169.792 136.048 166.213 130.513C162.525 124.809 144.413 97.4439 131.074 74.2793ZM80.2197 179.082C79.2767 180.73 78.0325 182.038 76.4814 183.113C78.0545 184.289 79.28 185.747 80.1953 187.589C81.1309 185.772 82.3645 184.325 83.9238 183.122C82.3963 182.02 81.1648 180.712 80.2197 179.082ZM106.285 156.985C109.108 163.344 111.589 167.118 114.346 169.726C117.086 172.317 120.275 173.927 124.881 175.66L123.119 180.34C118.297 178.525 114.371 176.632 110.91 173.358C107.467 170.101 104.66 165.649 101.715 159.015L106.285 156.985ZM111.093 129.367C109.924 131.157 109.201 132.529 108.682 133.965C108.159 135.413 107.805 137.029 107.475 139.353L102.525 138.647C102.878 136.169 103.29 134.174 103.979 132.267C104.673 130.348 105.609 128.62 106.907 126.633L111.093 129.367ZM180.626 75.8799C180.842 80.3607 181.346 83.0555 182.366 84.9346C183.308 86.6689 184.854 87.9939 187.952 89.2695L193.497 91.5527L187.972 93.8838C185.039 95.1218 183.527 96.4832 182.561 98.373C181.506 100.436 180.958 103.39 180.623 108.175L175.635 108.17C175.302 103.285 174.797 100.273 173.74 98.1992C172.794 96.3436 171.285 95.0242 168.178 93.9424L161.442 91.5967L168.168 89.2236C171.475 88.0565 173.063 86.7581 174 85.0625C175.026 83.2048 175.497 80.4876 175.63 75.9277L180.626 75.8799ZM178.22 87.7539C177.292 89.3362 176.076 90.5934 174.568 91.6279C176.095 92.76 177.293 94.1609 178.194 95.9287L178.195 95.9307C179.117 94.1866 180.321 92.792 181.837 91.6348C180.352 90.5756 179.149 89.3182 178.22 87.7539Z" fill="black"/>
</svg>
