<svg width="270" height="270" viewBox="0 0 270 270" fill="none" xmlns="http://www.w3.org/2000/svg">
<path d="M135 0C209.558 0 270 60.4416 270 135C270 209.558 209.558 270 135 270C60.4416 270 0 209.558 0 135C0 60.4416 60.4416 0 135 0ZM135 5C63.203 5 5 63.203 5 135C5 206.797 63.203 265 135 265C206.797 265 265 206.797 265 135C265 63.203 206.797 5 135 5ZM187.742 178.5C191.891 178.488 196.672 180.499 200.135 182.265C201.927 183.178 203.487 184.09 204.598 184.772C205.154 185.115 205.601 185.402 205.912 185.604C206.067 185.706 206.189 185.786 206.273 185.843C206.316 185.871 206.349 185.893 206.372 185.909C206.383 185.917 206.393 185.923 206.399 185.928L206.411 185.936L206.412 185.937C206.411 185.94 206.36 186.013 205 187.999C203.612 190.026 203.588 190.062 203.588 190.062C203.587 190.062 203.586 190.061 203.585 190.061C203.582 190.058 203.576 190.054 203.568 190.049C203.552 190.038 203.527 190.021 203.492 189.998C203.423 189.952 203.318 189.881 203.18 189.791C202.903 189.61 202.493 189.349 201.979 189.033C200.95 188.4 199.509 187.558 197.864 186.72C194.452 184.98 190.607 183.492 187.758 183.5C184.928 183.508 181.113 184.998 177.728 186.732C176.095 187.569 174.665 188.407 173.644 189.037C173.134 189.351 172.729 189.611 172.454 189.791C172.317 189.881 172.212 189.951 172.144 189.997C172.109 190.02 172.084 190.037 172.068 190.048C172.06 190.053 172.055 190.057 172.052 190.06C172.05 190.061 172.049 190.061 172.049 190.062V190.061C172.047 190.062 172.045 190.064 172.042 190.065C172.035 190.07 172.026 190.076 172.015 190.084C171.992 190.099 171.96 190.122 171.919 190.149C171.837 190.205 171.718 190.284 171.566 190.384C171.263 190.583 170.827 190.866 170.284 191.203C169.2 191.876 167.678 192.776 165.929 193.682C162.548 195.432 157.882 197.439 153.826 197.499C149.624 197.561 144.702 195.552 141.123 193.779C139.27 192.862 137.653 191.943 136.5 191.255C135.922 190.91 135.458 190.621 135.135 190.416C134.974 190.314 134.847 190.233 134.76 190.176C134.716 190.147 134.681 190.124 134.657 190.108C134.645 190.101 134.636 190.094 134.629 190.09C134.626 190.088 134.623 190.086 134.621 190.085L134.619 190.084L134.599 190.07C134.582 190.059 134.555 190.042 134.52 190.019C134.448 189.972 134.339 189.902 134.195 189.812C133.908 189.63 133.486 189.368 132.954 189.052C131.889 188.418 130.397 187.574 128.694 186.733C125.171 184.995 121.172 183.491 118.188 183.5C115.223 183.509 111.255 185.014 107.76 186.747C106.07 187.585 104.591 188.425 103.534 189.056C103.007 189.37 102.588 189.631 102.304 189.812C102.162 189.902 102.053 189.971 101.981 190.018C101.946 190.041 101.92 190.058 101.903 190.068C101.896 190.073 101.89 190.076 101.887 190.078V190.08H101.885C101.884 190.081 101.883 190.082 101.883 190.082C101.881 190.083 101.879 190.085 101.876 190.087C101.869 190.091 101.86 190.098 101.849 190.105C101.825 190.121 101.791 190.142 101.749 190.17C101.664 190.225 101.542 190.305 101.386 190.404C101.073 190.604 100.623 190.885 100.062 191.222C98.9441 191.894 97.3751 192.792 95.5713 193.696C92.0771 195.447 87.2835 197.44 83.1338 197.499C78.8272 197.561 73.8375 195.562 70.2012 193.785C68.3233 192.868 66.6893 191.948 65.5244 191.26C64.9409 190.915 64.4722 190.626 64.1465 190.421C63.9835 190.318 63.8559 190.237 63.7676 190.18C63.7236 190.151 63.6892 190.129 63.665 190.113C63.6529 190.105 63.6427 190.099 63.6357 190.095C63.6324 190.093 63.6301 190.09 63.6279 190.089C63.6269 190.088 63.6257 190.087 63.625 190.087H63.624C63.6236 190.087 63.6229 190.086 65 187.999C66.3769 185.913 66.3762 185.912 66.376 185.912C66.3764 185.912 66.3782 185.914 66.3799 185.915C66.3833 185.917 66.3894 185.921 66.3975 185.926C66.4144 185.937 66.4411 185.955 66.4775 185.979C66.5505 186.026 66.6619 186.097 66.8076 186.188C67.0992 186.372 67.5293 186.637 68.0693 186.956C69.1519 187.596 70.6669 188.447 72.3965 189.292C75.9758 191.041 80.0358 192.542 83.0625 192.499C85.9845 192.457 89.8923 190.95 93.3311 189.227C94.9935 188.393 96.4488 187.56 97.4883 186.936C98.0066 186.624 98.4185 186.366 98.6982 186.188C98.838 186.098 98.9447 186.029 99.0146 185.983C99.0494 185.961 99.0755 185.944 99.0918 185.934C99.0999 185.928 99.1061 185.924 99.1094 185.922L99.1113 185.92L99.1162 185.917L100.48 187.97C99.1824 186.016 99.1198 185.922 99.1172 185.917L99.1182 185.916C99.1189 185.916 99.12 185.915 99.1211 185.914C99.1232 185.913 99.1256 185.91 99.1289 185.908C99.1357 185.904 99.1455 185.898 99.1572 185.891C99.1809 185.875 99.2147 185.852 99.2578 185.824C99.344 185.768 99.4682 185.688 99.627 185.588C99.9449 185.386 100.403 185.102 100.973 184.762C102.11 184.083 103.705 183.177 105.538 182.268C109.089 180.506 113.96 178.512 118.173 178.5C122.417 178.488 127.328 180.484 130.907 182.25C132.756 183.162 134.364 184.072 135.511 184.754C136.085 185.095 136.546 185.381 136.866 185.584C137.027 185.685 137.152 185.766 137.239 185.822C137.283 185.85 137.316 185.873 137.34 185.889C137.352 185.896 137.361 185.903 137.368 185.907C137.372 185.909 137.375 185.912 137.377 185.913C137.378 185.914 137.379 185.914 137.38 185.914L137.381 185.915C137.381 185.916 137.364 185.941 136.024 187.962C137.323 186.009 137.38 185.921 137.383 185.917C137.383 185.917 137.385 185.918 137.387 185.919C137.39 185.921 137.396 185.925 137.404 185.931C137.421 185.942 137.448 185.96 137.484 185.983C137.557 186.031 137.667 186.102 137.812 186.193C138.101 186.377 138.527 186.642 139.062 186.961C140.135 187.601 141.635 188.453 143.342 189.298C146.883 191.051 150.855 192.542 153.752 192.499C156.542 192.458 160.299 190.966 163.63 189.241C165.236 188.41 166.642 187.579 167.646 186.955C168.148 186.644 168.547 186.386 168.817 186.208C168.952 186.119 169.055 186.05 169.122 186.005C169.156 185.982 169.181 185.965 169.196 185.954C169.204 185.949 169.21 185.946 169.213 185.943L169.215 185.941L169.22 185.938L170.604 187.953C169.22 185.938 169.22 185.938 169.221 185.938H169.222C169.222 185.937 169.224 185.936 169.225 185.936C169.227 185.934 169.229 185.932 169.232 185.93C169.239 185.925 169.248 185.919 169.26 185.911C169.283 185.896 169.316 185.874 169.357 185.846C169.441 185.79 169.562 185.708 169.716 185.607C170.024 185.406 170.468 185.121 171.021 184.78C172.123 184.101 173.669 183.193 175.447 182.282C178.883 180.522 183.625 178.512 187.742 178.5ZM186.742 155.5C190.891 155.488 195.672 157.499 199.135 159.265C200.927 160.178 202.487 161.09 203.598 161.772C204.154 162.115 204.601 162.402 204.912 162.604C205.067 162.706 205.189 162.786 205.273 162.843C205.316 162.871 205.349 162.893 205.372 162.909C205.383 162.917 205.393 162.923 205.399 162.928L205.411 162.936L205.412 162.937C205.411 162.94 205.36 163.013 204 164.999C202.612 167.026 202.588 167.062 202.588 167.062C202.587 167.062 202.586 167.061 202.585 167.061C202.582 167.058 202.576 167.054 202.568 167.049C202.552 167.038 202.527 167.021 202.492 166.998C202.423 166.952 202.318 166.881 202.18 166.791C201.903 166.61 201.493 166.349 200.979 166.033C199.95 165.4 198.509 164.558 196.864 163.72C193.452 161.98 189.607 160.492 186.758 160.5C183.928 160.508 180.113 161.998 176.728 163.732C175.095 164.569 173.665 165.407 172.644 166.037C172.134 166.351 171.729 166.611 171.454 166.791C171.317 166.881 171.212 166.951 171.144 166.997C171.109 167.02 171.084 167.037 171.068 167.048C171.06 167.053 171.055 167.057 171.052 167.06C171.05 167.061 171.049 167.061 171.049 167.062V167.061C171.047 167.062 171.045 167.064 171.042 167.065C171.035 167.07 171.026 167.076 171.015 167.084C170.992 167.099 170.96 167.122 170.919 167.149C170.837 167.205 170.718 167.284 170.566 167.384C170.263 167.583 169.827 167.866 169.284 168.203C168.2 168.876 166.678 169.776 164.929 170.682C161.548 172.432 156.882 174.439 152.826 174.499C148.624 174.561 143.702 172.552 140.123 170.779C138.27 169.862 136.653 168.943 135.5 168.255C134.922 167.91 134.458 167.621 134.135 167.416C133.974 167.314 133.847 167.233 133.76 167.176C133.716 167.147 133.681 167.124 133.657 167.108C133.645 167.101 133.636 167.094 133.629 167.09C133.626 167.088 133.623 167.086 133.621 167.085C133.62 167.084 133.619 167.083 133.618 167.083L133.617 167.082C133.618 167.079 133.665 167.008 134.989 165.015L133.605 167.074C133.605 167.074 133.604 167.073 133.603 167.072C133.599 167.07 133.594 167.066 133.586 167.061C133.57 167.05 133.543 167.033 133.508 167.01C133.437 166.963 133.33 166.893 133.188 166.803C132.906 166.622 132.49 166.359 131.966 166.043C130.916 165.41 129.447 164.567 127.77 163.728C124.295 161.989 120.364 160.492 117.438 160.5C114.533 160.508 110.632 162.007 107.186 163.741C105.522 164.578 104.065 165.417 103.023 166.047C102.504 166.361 102.091 166.623 101.811 166.803C101.67 166.893 101.563 166.963 101.493 167.009L101.396 167.073C101.395 167.075 101.392 167.076 101.39 167.078C101.383 167.083 101.374 167.088 101.362 167.096C101.339 167.111 101.307 167.133 101.265 167.161C101.181 167.217 101.06 167.296 100.906 167.396C100.598 167.595 100.153 167.877 99.6006 168.214C98.4973 168.886 96.9489 169.785 95.1689 170.689C91.7249 172.44 86.9881 174.439 82.8799 174.499C78.616 174.561 73.684 172.555 70.0996 170.778C68.2469 169.86 66.6344 168.941 65.4854 168.252C64.9097 167.907 64.4474 167.617 64.126 167.412C63.9653 167.31 63.8391 167.228 63.752 167.171C63.7085 167.142 63.6743 167.12 63.6504 167.104C63.6385 167.097 63.629 167.091 63.6221 167.086C63.6188 167.084 63.6164 167.081 63.6143 167.08C63.6132 167.079 63.6121 167.079 63.6113 167.078L63.6104 167.077C63.6137 167.071 63.6833 166.966 65 164.999C66.3079 163.045 66.3853 162.929 66.3896 162.922C66.3901 162.922 66.3919 162.923 66.3936 162.924C66.3969 162.926 66.4023 162.93 66.4102 162.936C66.4268 162.947 66.4535 162.964 66.4893 162.987C66.561 163.034 66.6709 163.105 66.8145 163.196C67.1016 163.379 67.5245 163.645 68.0566 163.964C69.1234 164.604 70.6162 165.454 72.3203 166.299C75.85 168.048 79.8405 169.542 82.8066 169.499C85.6705 169.457 89.5121 167.956 92.9033 166.232C94.5409 165.4 95.9749 164.568 96.999 163.944C97.5099 163.633 97.9158 163.374 98.1914 163.196C98.3289 163.107 98.4341 163.039 98.5029 162.993C98.5374 162.97 98.5631 162.953 98.5791 162.942C98.587 162.937 98.5925 162.933 98.5957 162.931C98.5972 162.93 98.5983 162.929 98.5986 162.929L98.6025 162.926L99.9756 164.963C98.629 162.965 98.6036 162.927 98.6035 162.926L98.6045 162.925C98.6052 162.924 98.6064 162.924 98.6074 162.923C98.6094 162.922 98.6121 162.92 98.6152 162.918C98.622 162.913 98.6319 162.907 98.6436 162.899C98.6669 162.884 98.6999 162.862 98.7422 162.834C98.8273 162.778 98.9505 162.698 99.1074 162.597C99.4211 162.395 99.8718 162.11 100.434 161.77C101.555 161.091 103.129 160.184 104.938 159.274C108.439 157.514 113.253 155.512 117.424 155.5C121.625 155.488 126.48 157.49 130.008 159.256C131.831 160.169 133.418 161.08 134.549 161.763C135.115 162.104 135.57 162.39 135.887 162.593C136.045 162.694 136.168 162.775 136.254 162.831C136.297 162.859 136.331 162.882 136.354 162.897C136.366 162.905 136.375 162.912 136.382 162.916L136.385 162.918L136.387 162.919C136.39 162.921 136.396 162.925 136.404 162.931C136.421 162.942 136.448 162.96 136.484 162.983C136.557 163.031 136.667 163.102 136.812 163.193C137.101 163.377 137.527 163.642 138.062 163.961C139.135 164.601 140.635 165.453 142.342 166.298C145.883 168.051 149.855 169.542 152.752 169.499C155.542 169.458 159.299 167.966 162.63 166.241C164.236 165.41 165.642 164.579 166.646 163.955C167.148 163.644 167.547 163.386 167.817 163.208C167.952 163.119 168.055 163.05 168.122 163.005C168.156 162.982 168.181 162.965 168.196 162.954C168.204 162.949 168.21 162.946 168.213 162.943L168.215 162.941L168.22 162.938L169.604 164.953C168.22 162.938 168.22 162.938 168.221 162.938H168.222C168.222 162.937 168.224 162.936 168.225 162.936C168.227 162.934 168.229 162.932 168.232 162.93C168.239 162.925 168.248 162.919 168.26 162.911C168.283 162.896 168.316 162.874 168.357 162.846C168.441 162.79 168.562 162.708 168.716 162.607C169.024 162.406 169.468 162.121 170.021 161.78C171.123 161.101 172.669 160.193 174.447 159.282C177.883 157.522 182.625 155.512 186.742 155.5ZM186.242 132.5C190.518 132.487 195.438 134.644 198.997 136.533C200.84 137.512 202.445 138.488 203.587 139.219C204.159 139.585 204.619 139.891 204.938 140.108C205.098 140.217 205.223 140.304 205.31 140.364C205.353 140.394 205.386 140.418 205.41 140.435C205.422 140.443 205.432 140.45 205.438 140.455C205.442 140.457 205.445 140.459 205.447 140.461C205.448 140.462 205.449 140.462 205.449 140.463H205.45C205.451 140.463 205.451 140.464 204 142.499C202.647 144.396 202.555 144.525 202.549 144.534C202.548 144.534 202.547 144.534 202.546 144.533C202.543 144.531 202.536 144.526 202.528 144.521C202.512 144.509 202.486 144.49 202.45 144.466C202.379 144.416 202.27 144.341 202.127 144.244C201.841 144.05 201.421 143.769 200.892 143.431C199.831 142.752 198.347 141.848 196.653 140.949C193.137 139.083 189.183 137.491 186.258 137.5C183.353 137.509 179.429 139.103 175.94 140.964C174.26 141.86 172.787 142.759 171.735 143.435C171.211 143.771 170.793 144.051 170.51 144.244C170.369 144.34 170.261 144.415 170.19 144.465C170.155 144.49 170.129 144.508 170.112 144.52C170.105 144.524 170.099 144.527 170.096 144.529L170.097 144.53L170.096 144.531C170.095 144.532 170.094 144.532 170.093 144.533C170.091 144.535 170.088 144.537 170.085 144.539C170.078 144.544 170.068 144.55 170.057 144.559C170.033 144.575 170.001 144.598 169.959 144.628C169.875 144.687 169.752 144.772 169.597 144.879C169.285 145.093 168.836 145.395 168.277 145.756C167.163 146.476 165.599 147.44 163.8 148.409C160.326 150.282 155.523 152.434 151.343 152.498C147.012 152.565 141.946 150.41 138.268 148.514C136.362 147.531 134.699 146.548 133.514 145.811C132.92 145.441 132.442 145.132 132.11 144.913C131.944 144.804 131.815 144.716 131.725 144.655C131.68 144.625 131.645 144.601 131.62 144.584L131.579 144.557L131.578 144.556C131.578 144.554 131.61 144.507 133 142.499C131.525 144.517 131.525 144.518 131.525 144.519C131.525 144.518 131.524 144.518 131.522 144.517C131.519 144.514 131.514 144.51 131.506 144.504C131.49 144.492 131.464 144.474 131.43 144.449C131.36 144.4 131.254 144.324 131.115 144.228C130.837 144.034 130.427 143.753 129.911 143.415C128.877 142.737 127.432 141.835 125.781 140.938C122.349 139.07 118.512 137.491 115.69 137.5C112.889 137.509 109.08 139.089 105.675 140.951C104.038 141.846 102.603 142.744 101.578 143.419C101.067 143.755 100.66 144.035 100.384 144.228C100.246 144.324 100.141 144.399 100.072 144.448C100.038 144.473 100.012 144.49 99.9961 144.502C99.9892 144.507 99.9838 144.51 99.9805 144.513L99.9795 144.515C99.978 144.516 99.9769 144.516 99.9766 144.517L99.9424 144.541C99.9197 144.558 99.8879 144.582 99.8467 144.611C99.764 144.671 99.6445 144.755 99.4922 144.862C99.1878 145.076 98.7504 145.379 98.2051 145.74C97.1166 146.461 95.5877 147.425 93.8301 148.396C90.4432 150.268 85.7377 152.433 81.6279 152.498C77.3612 152.565 72.4605 150.391 68.9355 148.492C67.1059 147.507 65.5145 146.52 64.3809 145.781C63.8128 145.411 63.3562 145.101 63.0391 144.881C62.8806 144.771 62.757 144.683 62.6709 144.622C62.628 144.592 62.594 144.568 62.5703 144.551C62.5585 144.542 62.5488 144.535 62.542 144.53C62.5386 144.528 62.5354 144.526 62.5332 144.524L62.5303 144.521C62.5299 144.521 62.5291 144.521 64 142.499C65.3916 140.586 65.4659 140.483 65.4697 140.478C65.4701 140.478 65.472 140.478 65.4736 140.479C65.4769 140.482 65.4823 140.486 65.4902 140.492C65.5066 140.504 65.5331 140.523 65.5684 140.548C65.639 140.598 65.7467 140.674 65.8877 140.771C66.1705 140.967 66.5873 141.251 67.1113 141.593C68.1618 142.277 69.6312 143.188 71.3076 144.091C74.795 145.97 78.6889 147.544 81.5488 147.499C84.3114 147.455 88.0614 145.872 91.4121 144.021C93.0234 143.13 94.4347 142.239 95.4434 141.571C95.9464 141.238 96.3468 140.962 96.6182 140.771C96.7537 140.676 96.8571 140.602 96.9248 140.554C96.9585 140.529 96.9834 140.511 96.999 140.5C97.0069 140.494 97.0125 140.49 97.0156 140.487C97.0171 140.486 97.0182 140.486 97.0186 140.485L97.0225 140.482L98.5 142.499C97.0986 140.586 97.0268 140.488 97.0234 140.482L97.0244 140.481C97.0252 140.481 97.0263 140.48 97.0273 140.479L97.0625 140.453C97.0856 140.436 97.1183 140.413 97.1602 140.383C97.2442 140.323 97.3657 140.237 97.5205 140.129C97.8301 139.913 98.2756 139.607 98.8301 139.242C99.9366 138.514 101.49 137.541 103.276 136.564C106.718 134.682 111.502 132.513 115.675 132.5C119.879 132.487 124.701 134.657 128.171 136.545C129.972 137.525 131.538 138.503 132.653 139.234C133.212 139.601 133.661 139.908 133.973 140.125C134.129 140.234 134.251 140.32 134.336 140.381C134.372 140.406 134.401 140.427 134.423 140.443C134.424 140.444 134.425 140.444 134.426 140.445C134.429 140.448 134.436 140.452 134.444 140.458C134.462 140.47 134.489 140.489 134.526 140.515C134.601 140.565 134.715 140.641 134.864 140.739C135.163 140.936 135.601 141.221 136.152 141.563C137.257 142.25 138.801 143.163 140.559 144.069C144.207 145.951 148.293 147.545 151.267 147.499C154.131 147.455 157.995 145.858 161.427 144.008C163.08 143.116 164.529 142.225 165.563 141.557C166.08 141.223 166.491 140.946 166.77 140.755C166.908 140.66 167.014 140.586 167.084 140.537C167.119 140.513 167.145 140.494 167.161 140.482C167.169 140.477 167.175 140.473 167.178 140.471C167.179 140.47 167.18 140.469 167.181 140.469L167.186 140.466L168.483 142.282C167.202 140.49 167.185 140.465 167.186 140.465L167.187 140.464L167.198 140.456C167.205 140.451 167.214 140.445 167.226 140.437C167.249 140.42 167.283 140.396 167.326 140.366C167.412 140.306 167.536 140.22 167.694 140.112C168.011 139.896 168.467 139.591 169.035 139.227C170.168 138.499 171.759 137.527 173.587 136.552C177.117 134.668 181.999 132.513 186.242 132.5ZM133.5 79C147.031 79 158 89.7452 158 103C158 116.255 147.031 127 133.5 127C119.969 127 109 116.255 109 103C109 89.7452 119.969 79 133.5 79ZM133.5 84C122.633 84 114 92.6033 114 103C114 113.397 122.633 122 133.5 122C144.367 122 153 113.397 153 103C153 92.6033 144.367 84 133.5 84ZM133 90.5C134.381 90.5 135.5 91.6193 135.5 93V100.5H142C143.381 100.5 144.5 101.619 144.5 103C144.5 104.381 143.381 105.5 142 105.5H135.5V114C135.5 115.381 134.381 116.5 133 116.5C131.619 116.5 130.5 115.381 130.5 114V105.5H123C121.619 105.5 120.5 104.381 120.5 103C120.5 101.619 121.619 100.5 123 100.5H130.5V93C130.5 91.6193 131.619 90.5 133 90.5Z" fill="black"/>
</svg>
