<svg width="270" height="270" viewBox="0 0 270 270" fill="none" xmlns="http://www.w3.org/2000/svg">
<path d="M135 0C209.558 0 270 60.4416 270 135C270 209.558 209.558 270 135 270C60.4416 270 0 209.558 0 135C0 60.4416 60.4416 0 135 0ZM135 5C63.203 5 5 63.203 5 135C5 206.797 63.203 265 135 265C206.797 265 265 206.797 265 135C265 63.203 206.797 5 135 5ZM161 142C178.673 142 193 156.551 193 174.5C193 192.449 178.673 207 161 207C143.327 207 129 192.449 129 174.5C129 156.551 143.327 142 161 142ZM123.054 61.7656L144.114 98.875L165.174 135.984L163 137.219L160.826 138.452L139.766 101.343L121.412 69.0029C121 70.1212 120.528 71.3776 120.002 72.7285C118.003 77.8618 115.213 84.4419 112.095 90.0479C106.26 100.538 99.4652 112.711 93.6787 123.446C87.8578 134.245 83.1612 143.401 81.4375 147.946C79.8287 152.188 78.8648 160.665 79.9814 169.161C81.1077 177.73 84.2252 185.405 89.8994 188.979C96.4587 193.109 108.967 201.812 130.406 196.571L131.594 201.429C108.033 207.188 93.9668 197.449 87.2344 193.21C79.6172 188.413 76.206 178.802 75.0244 169.812C73.8333 160.75 74.7824 151.394 76.7627 146.173C78.6283 141.254 83.5059 131.78 89.2773 121.073C95.0834 110.302 101.899 98.0937 107.726 87.6182C110.681 82.3046 113.375 75.9673 115.343 70.9141C116.323 68.397 117.115 66.2167 117.662 64.668C117.935 63.8942 118.147 63.2788 118.29 62.8584C118.361 62.6483 118.416 62.4868 118.452 62.3789C118.47 62.3251 118.483 62.2844 118.492 62.2578C118.497 62.2447 118.5 62.2348 118.502 62.2285C118.503 62.2256 118.503 62.223 118.504 62.2217L118.505 62.2197L120.267 56.8545L123.054 61.7656ZM161 147C146.161 147 134 159.239 134 174.5C134 189.761 146.161 202 161 202C175.839 202 188 189.761 188 174.5C188 159.239 175.839 147 161 147ZM158.915 172.738C159.869 172.738 160.75 172.988 161.557 173.488C162.363 173.983 163.008 174.73 163.491 175.73C163.974 176.725 164.216 177.972 164.216 179.472C164.216 180.932 163.98 182.165 163.509 183.171C163.043 184.171 162.406 184.929 161.6 185.446C160.798 185.958 159.901 186.213 158.906 186.213C158.202 186.213 157.603 186.096 157.108 185.863C156.62 185.63 156.219 185.338 155.906 184.985C155.594 184.627 155.355 184.267 155.19 183.903H155.079V190.909H151.449V172.909H155.028V175.108H155.19C155.35 174.756 155.58 174.398 155.881 174.034C156.188 173.665 156.586 173.358 157.074 173.113C157.568 172.863 158.182 172.738 158.915 172.738ZM170.395 175.747H177.887V168.546H181.568V186H177.887V178.79H170.395V186H166.704V168.546H170.395V175.747ZM95.6396 176.818C95.6491 176.826 95.6696 176.844 95.7002 176.868C95.7617 176.917 95.8647 176.997 96.0068 177.099C96.2926 177.304 96.7327 177.598 97.3086 177.916C98.466 178.556 100.136 179.275 102.181 179.604L101.352 184.544C98.6119 184.104 96.3976 183.147 94.8682 182.302C94.1011 181.878 93.4969 181.476 93.0742 181.173C92.8627 181.021 92.6954 180.892 92.5752 180.797C92.5151 180.749 92.4663 180.709 92.4297 180.679C92.4115 180.664 92.3961 180.651 92.3838 180.641C92.3777 180.635 92.3718 180.631 92.3672 180.627L92.3574 180.618C92.3568 180.618 92.3559 180.616 94 178.72C95.537 176.947 95.6366 176.83 95.6426 176.822L95.6416 176.82L95.6396 176.819C95.6386 176.818 95.6375 176.817 95.6367 176.816L95.6396 176.818ZM157.756 175.628C157.165 175.628 156.665 175.784 156.256 176.097C155.853 176.409 155.543 176.852 155.327 177.426C155.111 178 155.003 178.676 155.003 179.454C155.003 180.232 155.111 180.912 155.327 181.491C155.543 182.071 155.856 182.523 156.265 182.847C156.674 183.165 157.171 183.324 157.756 183.324C158.347 183.324 158.847 183.162 159.256 182.838C159.665 182.508 159.974 182.054 160.185 181.475C160.4 180.889 160.509 180.215 160.509 179.454C160.509 178.699 160.404 178.034 160.193 177.46C159.983 176.886 159.674 176.437 159.265 176.113C158.856 175.789 158.352 175.628 157.756 175.628ZM91.4932 160.38C90.5672 165.226 90.9801 168.452 91.5215 170.365C91.7941 171.328 92.1064 171.985 92.3223 172.369C92.4304 172.561 92.5156 172.688 92.5605 172.751C92.5829 172.782 92.5963 172.798 92.5967 172.799C92.5967 172.799 92.5929 172.794 92.5869 172.787L92.5605 172.757C92.5554 172.759 92.4722 172.84 90.7725 174.504C89.0894 176.151 88.9902 176.245 88.9834 176.249L88.9629 176.227C88.9548 176.217 88.9463 176.206 88.9365 176.194C88.9167 176.171 88.8932 176.142 88.8672 176.109C88.815 176.044 88.7503 175.959 88.6768 175.856C88.5294 175.65 88.344 175.368 88.1406 175.006C87.7332 174.281 87.2554 173.242 86.8633 171.856C86.0748 169.071 85.6574 164.986 86.7275 159.386L91.4932 160.38Z" fill="black"/>
</svg>
