<svg width="270" height="270" viewBox="0 0 270 270" fill="none" xmlns="http://www.w3.org/2000/svg">
<path d="M135 0C209.558 0 270 60.4416 270 135C270 209.558 209.558 270 135 270C60.4416 270 0 209.558 0 135C0 60.4416 60.4416 0 135 0ZM135 5C63.203 5 5 63.203 5 135C5 206.797 63.203 265 135 265C206.797 265 265 206.797 265 135C265 63.203 206.797 5 135 5ZM126.563 146.78L125.625 147.531L125.623 147.532C125.62 147.534 125.616 147.539 125.609 147.544C125.596 147.555 125.574 147.572 125.545 147.596C125.487 147.643 125.399 147.716 125.284 147.812C125.055 148.003 124.72 148.285 124.31 148.645C123.487 149.364 122.367 150.383 121.179 151.578C118.724 154.049 116.273 156.985 115.284 159.474C114.019 162.658 113.259 165.175 113.066 167.593C112.878 169.957 113.224 172.367 114.396 175.316C116.551 180.74 119.503 184.095 125.194 186.981C128.998 188.91 131.39 189.679 135.48 189.466C138.864 189.29 140.718 188.641 143.752 187.009C149.106 184.129 151.673 180.736 153.7 175.357C154.822 172.381 155.144 169.966 154.955 167.594C154.761 165.167 154.023 162.646 152.812 159.432C151.887 156.979 149.619 154.034 147.364 151.548C146.271 150.343 145.242 149.311 144.485 148.58C144.108 148.216 143.801 147.928 143.59 147.733C143.485 147.636 143.403 147.562 143.35 147.514C143.323 147.49 143.303 147.472 143.291 147.461C143.285 147.456 143.281 147.451 143.278 147.449C143.277 147.448 143.276 147.448 143.275 147.447V147.446L142.437 146.702V130.5H208C209.381 130.5 210.5 131.619 210.5 133C210.5 134.381 209.381 135.5 208 135.5H147.437V144.484C147.593 144.632 147.768 144.799 147.959 144.983C148.773 145.77 149.883 146.883 151.067 148.188C153.368 150.724 156.207 154.264 157.49 157.669C158.748 161.007 159.689 164.055 159.939 167.196C160.194 170.392 159.727 173.545 158.379 177.121C155.991 183.457 152.691 187.879 146.121 191.413C142.594 193.31 140.022 194.236 135.74 194.459C130.507 194.731 127.233 193.621 122.933 191.44C116.164 188.007 112.358 183.729 109.749 177.162C108.332 173.595 107.827 170.418 108.083 167.196C108.335 164.028 109.314 160.959 110.638 157.627C112.031 154.12 115.131 150.57 117.632 148.054C118.922 146.756 120.131 145.656 121.018 144.881C121.216 144.707 121.399 144.549 121.563 144.408V135.5H61C59.6193 135.5 58.5 134.381 58.5 133C58.5 131.619 59.6193 130.5 61 130.5H126.563V146.78ZM125.077 159.959C125.652 158.704 127.136 158.152 128.392 158.728C129.646 159.303 130.198 160.786 129.623 162.041C129.622 162.042 129.622 162.045 129.62 162.048C129.616 162.057 129.609 162.072 129.6 162.094C129.581 162.137 129.551 162.204 129.513 162.293C129.436 162.472 129.325 162.738 129.193 163.074C128.929 163.749 128.589 164.689 128.281 165.75C127.628 168.003 127.279 170.302 127.651 171.817C128.166 173.912 128.466 174.784 129.606 176.011C130.445 176.912 131.119 177.464 131.791 177.823C132.439 178.17 133.211 178.403 134.327 178.479C135.575 178.565 136.494 178.371 137.302 177.998C138.152 177.606 139.013 176.954 140.062 175.927C140.788 175.215 141.214 174.652 141.523 174.087C141.841 173.507 142.095 172.818 142.372 171.772C142.74 170.383 142.289 168.199 141.413 165.942C141.007 164.896 140.563 163.968 140.22 163.301C140.049 162.969 139.905 162.706 139.807 162.529C139.757 162.441 139.719 162.375 139.694 162.333C139.682 162.312 139.674 162.297 139.669 162.288L139.665 162.282L139.545 162.056C139.009 160.908 139.418 159.517 140.529 158.854C141.715 158.146 143.25 158.533 143.958 159.718L141.812 161C143.881 159.764 143.955 159.72 143.958 159.719L143.959 159.72C143.959 159.72 143.959 159.722 143.96 159.723C143.961 159.725 143.963 159.727 143.965 159.729C143.968 159.735 143.972 159.743 143.978 159.752C143.988 159.77 144.002 159.795 144.021 159.826C144.057 159.888 144.107 159.976 144.169 160.087C144.293 160.309 144.465 160.624 144.666 161.014C145.066 161.791 145.588 162.881 146.073 164.132C146.981 166.469 148.018 169.991 147.205 173.055C146.878 174.287 146.501 175.408 145.909 176.488C145.31 177.583 144.549 178.531 143.561 179.499C142.322 180.713 140.986 181.804 139.396 182.538C137.765 183.291 135.999 183.607 133.983 183.468C132.283 183.351 130.803 182.964 129.436 182.233C128.091 181.515 126.984 180.534 125.944 179.415C123.921 177.239 123.371 175.353 122.796 173.011C122.085 170.119 122.798 166.71 123.479 164.358C123.839 163.117 124.233 162.03 124.537 161.253C124.69 160.863 124.821 160.548 124.916 160.326C124.963 160.215 125.002 160.127 125.029 160.065C125.043 160.035 125.053 160.01 125.062 159.992C125.065 159.983 125.069 159.976 125.071 159.971L125.076 159.961L125.077 159.96C125.085 159.963 125.201 160.016 127.051 160.863L125.077 159.959ZM101 152.5C102.381 152.5 103.5 153.619 103.5 155C103.5 156.381 102.381 157.5 101 157.5H60C58.6193 157.5 57.5 156.381 57.5 155C57.5 153.619 58.6193 152.5 60 152.5H101ZM209 152.5C210.381 152.5 211.5 153.619 211.5 155C211.5 156.381 210.381 157.5 209 157.5H168C166.619 157.5 165.5 156.381 165.5 155C165.5 153.619 166.619 152.5 168 152.5H209ZM99.458 92.5605C100.302 92.3725 101.189 92.6389 101.792 93.2607L110.719 95.9385C112.041 96.3353 112.791 97.7294 112.395 99.0518C111.998 100.374 110.604 101.124 109.281 100.728L105.323 99.54L114.194 115.803C114.855 117.015 114.409 118.533 113.197 119.194C111.985 119.855 110.467 119.409 109.806 118.197L99.5352 99.3682L96.2461 106.098C95.6397 107.338 94.1427 107.852 92.9023 107.246C91.6621 106.64 91.1478 105.143 91.7539 103.902L96.6426 93.9023L97.5752 91.9961L99.458 92.5605ZM167.724 90.0547L168.818 91.8545C168.822 91.8597 168.825 91.8649 168.828 91.8701L168.834 91.8799L174.428 101.066C175.121 102.207 174.645 103.638 173.365 104.264C172.085 104.889 170.484 104.472 169.79 103.332L166.895 98.5742L158.366 117.925C157.832 119.137 156.3 119.738 154.945 119.267C153.591 118.795 152.926 117.431 153.46 116.219L161.842 97.1973L156.531 99.0801C155.175 99.5605 153.646 98.9712 153.114 97.7627C152.583 96.5541 153.252 95.1848 154.607 94.7041L165.554 90.8232L167.724 90.0547ZM135.765 86.04L144.313 93.1846C145.347 94.0486 145.387 95.5719 144.404 96.5869C143.421 97.6018 141.786 97.725 140.752 96.8613L136.688 93.4639L137.083 112.11C137.111 113.44 135.977 114.598 134.551 114.698C133.124 114.798 131.945 113.802 131.917 112.473L131.5 92.748L126.512 96.4883C125.369 97.3446 123.749 97.2108 122.895 96.1895C122.04 95.168 122.273 93.6454 123.415 92.7891L132.437 86.0273L134.184 84.7178L135.765 86.04Z" fill="black"/>
</svg>
