<svg width="270" height="270" viewBox="0 0 270 270" fill="none" xmlns="http://www.w3.org/2000/svg">
<path d="M135 0C209.558 0 270 60.4416 270 135C270 209.558 209.558 270 135 270C60.4416 270 0 209.558 0 135C0 60.4416 60.4416 0 135 0ZM135 5C63.203 5 5 63.203 5 135C5 206.797 63.203 265 135 265C206.797 265 265 206.797 265 135C265 63.203 206.797 5 135 5ZM136.214 44.8809C137.42 70.268 140.258 87.736 147.254 100.784C154.171 113.685 165.328 122.568 183.962 130.336L189.429 132.614L183.982 134.942C174.672 138.921 163.944 148.416 157.614 154.095L155.945 152.234L154.275 150.373C159.468 145.715 168.348 137.791 177.127 132.798C160.651 125.21 149.822 116.154 142.848 103.146C138.574 95.1754 135.805 85.8182 133.985 74.5947C132.31 86.1948 129.568 95.8387 125.131 103.972C118.098 116.863 106.981 125.676 89.9893 132.643C106.489 139.505 117.086 148.746 123.94 162.359C129.153 172.712 132.135 185.481 134.088 201.377C137.725 181.223 143.952 165.251 151.464 153.917L155.632 156.679C146.024 171.175 138.343 194.279 136.21 225.172L131.222 225.168C129.378 197.775 126.529 178.62 119.475 164.608C112.531 150.817 101.376 141.772 82.1689 135.001L75.5254 132.659L82.1592 130.289C102.007 123.197 113.691 114.5 120.741 101.577C127.882 88.4883 130.477 70.7142 131.218 44.9277L136.214 44.8809ZM184.135 158.935C184.364 164.143 184.901 167.556 186.134 170.043C187.318 172.432 189.224 174.119 192.616 175.648L195.611 176.999L192.63 178.377C189.382 179.878 187.521 181.623 186.323 184.188C185.074 186.862 184.487 190.548 184.133 196.096L181.139 196.093C180.788 190.453 180.249 186.685 178.994 183.988C177.803 181.429 175.913 179.732 172.466 178.417L168.815 177.025L172.459 175.616C176.072 174.219 178.052 172.572 179.248 170.2C180.5 167.718 180.996 164.254 181.137 158.96L184.135 158.935ZM182.72 169.642C182.492 170.314 182.23 170.95 181.927 171.551C180.731 173.922 178.966 175.654 176.52 177.028C178.888 178.427 180.563 180.247 181.715 182.722C182.094 183.537 182.412 184.417 182.683 185.365C182.946 184.493 183.249 183.679 183.604 182.918C184.777 180.408 186.459 178.545 188.808 177.041C186.385 175.572 184.64 173.787 183.445 171.376C183.173 170.826 182.933 170.248 182.72 169.642ZM89.1348 69.9346C89.3635 75.1425 89.9014 78.5561 91.1338 81.043C92.3177 83.4317 94.224 85.1185 97.6162 86.6484L100.611 87.999L97.6299 89.377C94.3823 90.8784 92.5206 92.623 91.3232 95.1875C90.0744 97.8622 89.4869 101.548 89.1328 107.096L86.1387 107.093C85.7877 101.453 85.2489 97.6846 83.9941 94.9883C82.8033 92.4295 80.9132 90.7318 77.4658 89.417L73.8154 88.0254L77.459 86.6162C81.0721 85.2194 83.0522 83.5717 84.248 81.2002C85.4999 78.7176 85.9961 75.2542 86.1367 69.96L89.1348 69.9346ZM87.7197 80.6416C87.4917 81.3138 87.2299 81.9496 86.9268 82.5508C85.7313 84.9215 83.9664 86.6539 81.5195 88.0283C83.8881 89.4266 85.5631 91.247 86.7148 93.7217C87.0944 94.5372 87.4123 95.4173 87.6826 96.3652C87.9459 95.493 88.2493 94.6787 88.6045 93.918C89.7766 91.4077 91.4587 89.5447 93.8076 88.041C91.3854 86.5716 89.6404 84.7874 88.4453 82.376C88.173 81.8264 87.9334 81.2485 87.7197 80.6416Z" fill="black"/>
</svg>
